<?xml version="1.0" encoding="UTF-8" standalone="no"?><svg width="256" height="128" viewBox="0 0 256 128" xmlns="http://www.w3.org/2000/svg" xmlns:xlink="http://www.w3.org/1999/xlink"><svg width="128" height="128" viewBox="0 0 128 128" id="icon-check"><title>1492008431_Checkmark</title><g fill-rule="nonzero" fill="none"><circle fill="#CCC" cx="64" cy="64" r="64"/><path d="M54.3 97.2L24.8 67.7c-.4-.4-.4-1 0-1.4l8.5-8.5c.4-.4 1-.4 1.4 0L55 78.1l38.2-38.2c.4-.4 1-.4 1.4 0l8.5 8.5c.4.4.4 1 0 1.4L55.7 97.2c-.4.4-1 .4-1.4 0z" fill="#FFF"/></g></svg><svg width="128" height="128" viewBox="0 0 128 128" id="icon-check-act" x="128"><title>1492008431_Checkmark</title><g fill-rule="nonzero" fill="none"><circle fill="#72BD37" cx="64" cy="64" r="64"/><path d="M54.3 97.2L24.8 67.7c-.4-.4-.4-1 0-1.4l8.5-8.5c.4-.4 1-.4 1.4 0L55 78.1l38.2-38.2c.4-.4 1-.4 1.4 0l8.5 8.5c.4.4.4 1 0 1.4L55.7 97.2c-.4.4-1 .4-1.4 0z" fill="#FFF"/></g></svg></svg>